<svg viewBox="0 0 860 540" xmlns="http://www.w3.org/2000/svg" font-family="'JetBrains Mono', ui-monospace, monospace" font-size="12">
  <defs>
    <marker id="arr" markerWidth="8" markerHeight="8" refX="6" refY="3" orient="auto">
      <path d="M0,0 L0,6 L8,3 z" fill="#6c7086"/>
    </marker>
    <marker id="arr-blue" markerWidth="8" markerHeight="8" refX="6" refY="3" orient="auto">
      <path d="M0,0 L0,6 L8,3 z" fill="#89b4fa"/>
    </marker>
    <marker id="arr-purple" markerWidth="8" markerHeight="8" refX="6" refY="3" orient="auto">
      <path d="M0,0 L0,6 L8,3 z" fill="#cba6f7"/>
    </marker>
    <marker id="arr-green" markerWidth="8" markerHeight="8" refX="6" refY="3" orient="auto">
      <path d="M0,0 L0,6 L8,3 z" fill="#a6e3a1"/>
    </marker>
    <marker id="arr-red" markerWidth="8" markerHeight="8" refX="6" refY="3" orient="auto">
      <path d="M0,0 L0,6 L8,3 z" fill="#f38ba8"/>
    </marker>
  </defs>

  <!-- Background -->
  <rect width="860" height="540" fill="#1e1e2e" rx="12"/>

  <!-- Title -->
  <text x="430" y="32" text-anchor="middle" fill="#cdd6f4" font-size="13" font-weight="600" letter-spacing="0.04em">ACO PLATFORM EXTENSION — SCHEDULING FLOW</text>

  <!-- Lane labels -->
  <text x="18" y="100" fill="#6c7086" font-size="9" letter-spacing="0.1em">SUBMISSION</text>
  <text x="18" y="220" fill="#6c7086" font-size="9" letter-spacing="0.1em">KUBERNETES</text>
  <text x="18" y="370" fill="#6c7086" font-size="9" letter-spacing="0.1em">ACO ENGINE</text>
  <text x="18" y="490" fill="#6c7086" font-size="9" letter-spacing="0.1em">OBSERVABILITY</text>

  <!-- Lane dividers -->
  <line x1="100" y1="55" x2="845" y2="55" stroke="#313244" stroke-width="1"/>
  <line x1="100" y1="170" x2="845" y2="170" stroke="#313244" stroke-width="1"/>
  <line x1="100" y1="310" x2="845" y2="310" stroke="#313244" stroke-width="1"/>
  <line x1="100" y1="450" x2="845" y2="450" stroke="#313244" stroke-width="1"/>

  <!-- ROW 1: Submission -->
  <rect x="110" y="70" width="120" height="52" rx="6" fill="#313244" stroke="#45475a" stroke-width="1.5"/>
  <text x="170" y="91" text-anchor="middle" fill="#cdd6f4" font-weight="600">Pod</text>
  <text x="170" y="108" text-anchor="middle" fill="#6c7086" font-size="10">gpu: nvidia / tenant: prod</text>

  <line x1="230" y1="96" x2="295" y2="96" stroke="#6c7086" stroke-width="1.5" marker-end="url(#arr)"/>

  <rect x="295" y="70" width="130" height="52" rx="6" fill="#313244" stroke="#45475a" stroke-width="1.5"/>
  <text x="360" y="91" text-anchor="middle" fill="#cdd6f4" font-weight="600">K8s API Server</text>
  <text x="360" y="108" text-anchor="middle" fill="#6c7086" font-size="10">schedules via extender</text>

  <line x1="425" y1="96" x2="490" y2="96" stroke="#6c7086" stroke-width="1.5" marker-end="url(#arr)"/>

  <rect x="490" y="70" width="140" height="52" rx="6" fill="#313244" stroke="#45475a" stroke-width="1.5"/>
  <text x="560" y="91" text-anchor="middle" fill="#cdd6f4" font-weight="600">Default Scheduler</text>
  <text x="560" y="108" text-anchor="middle" fill="#6c7086" font-size="10">pre-filter + passes list</text>

  <!-- ROW 2: Extender -->
  <rect x="155" y="175" width="500" height="75" rx="8" fill="none" stroke="#89b4fa" stroke-width="1" stroke-dasharray="4,3" opacity="0.4"/>
  <text x="662" y="190" fill="#89b4fa" font-size="9" letter-spacing="0.06em" opacity="0.7">FastAPI Extender · :8080</text>

  <rect x="170" y="185" width="130" height="52" rx="6" fill="#1e3a5f" stroke="#89b4fa" stroke-width="1.5"/>
  <text x="235" y="206" text-anchor="middle" fill="#89b4fa" font-weight="600">POST /filter</text>
  <text x="235" y="223" text-anchor="middle" fill="#89b4fa" font-size="10" opacity="0.7">GPU label · CPU · Memory</text>

  <rect x="490" y="185" width="145" height="52" rx="6" fill="#1e3a5f" stroke="#89b4fa" stroke-width="1.5"/>
  <text x="562" y="206" text-anchor="middle" fill="#89b4fa" font-weight="600">POST /prioritize</text>
  <text x="562" y="223" text-anchor="middle" fill="#89b4fa" font-size="10" opacity="0.7">returns scores 0–10</text>

  <path d="M560,122 L560,155 L235,155 L235,185" stroke="#89b4fa" stroke-width="1.5" fill="none" marker-end="url(#arr-blue)" opacity="0.8"/>
  <line x1="300" y1="211" x2="490" y2="211" stroke="#89b4fa" stroke-width="1.5" marker-end="url(#arr-blue)" opacity="0.8"/>
  <text x="395" y="205" text-anchor="middle" fill="#89b4fa" font-size="9" opacity="0.7">filtered nodes</text>

  <!-- ROW 3: ACO Engine -->
  <rect x="155" y="315" width="380" height="85" rx="8" fill="none" stroke="#cba6f7" stroke-width="1" stroke-dasharray="4,3" opacity="0.35"/>
  <text x="545" y="330" fill="#cba6f7" font-size="9" letter-spacing="0.06em" opacity="0.6">ACO Engine</text>

  <rect x="170" y="325" width="150" height="64" rx="6" fill="#2a1f3d" stroke="#cba6f7" stroke-width="1.5"/>
  <text x="245" y="348" text-anchor="middle" fill="#cba6f7" font-weight="600">CostEngine</text>
  <text x="245" y="364" text-anchor="middle" fill="#cba6f7" font-size="10" opacity="0.75">reliability × cost_eff</text>
  <text x="245" y="378" text-anchor="middle" fill="#cba6f7" font-size="10" opacity="0.75">× sla_headroom × EMA</text>

  <rect x="360" y="325" width="155" height="64" rx="6" fill="#2a1f3d" stroke="#cba6f7" stroke-width="1.5"/>
  <text x="437" y="348" text-anchor="middle" fill="#cba6f7" font-weight="600">Pheromone Table</text>
  <text x="437" y="364" text-anchor="middle" fill="#cba6f7" font-size="10" opacity="0.75">per-tenant · ρ=0.05 evap</text>
  <text x="437" y="378" text-anchor="middle" fill="#cba6f7" font-size="10" opacity="0.75">deposit Q/score on winner</text>

  <path d="M562,237 L562,290 L245,290 L245,325" stroke="#cba6f7" stroke-width="1.5" fill="none" marker-end="url(#arr-purple)" opacity="0.7"/>
  <line x1="320" y1="357" x2="360" y2="357" stroke="#cba6f7" stroke-width="1.5" marker-end="url(#arr-purple)" opacity="0.7"/>

  <!-- Node Pool -->
  <rect x="575" y="315" width="255" height="88" rx="6" fill="#313244" stroke="#a6e3a1" stroke-width="1.5"/>
  <text x="702" y="338" text-anchor="middle" fill="#a6e3a1" font-weight="600">GPU Node Pool</text>

  <rect x="587" y="347" width="44" height="22" rx="3" fill="#1a2e1a" stroke="#a6e3a1" stroke-width="1"/>
  <text x="609" y="362" text-anchor="middle" fill="#a6e3a1" font-size="9">CPU</text>
  <rect x="637" y="347" width="36" height="22" rx="3" fill="#1a2e1a" stroke="#a6e3a1" stroke-width="1"/>
  <text x="655" y="362" text-anchor="middle" fill="#a6e3a1" font-size="9">T4</text>
  <rect x="679" y="347" width="38" height="22" rx="3" fill="#1a2e1a" stroke="#a6e3a1" stroke-width="1"/>
  <text x="698" y="362" text-anchor="middle" fill="#a6e3a1" font-size="9">A10</text>
  <rect x="723" y="347" width="42" height="22" rx="3" fill="#1a2e1a" stroke="#a6e3a1" stroke-width="1"/>
  <text x="744" y="362" text-anchor="middle" fill="#a6e3a1" font-size="9">V100</text>
  <rect x="771" y="347" width="42" height="22" rx="3" fill="#1a2e1a" stroke="#a6e3a1" stroke-width="1"/>
  <text x="792" y="362" text-anchor="middle" fill="#a6e3a1" font-size="9">P100</text>

  <text x="655" y="386" text-anchor="middle" fill="#a6e3a1" font-size="8" opacity="0.6">$0.45/hr</text>
  <text x="698" y="386" text-anchor="middle" fill="#a6e3a1" font-size="8" opacity="0.6">$1.20/hr</text>
  <text x="744" y="386" text-anchor="middle" fill="#a6e3a1" font-size="8" opacity="0.6">$3.20/hr</text>
  <text x="792" y="386" text-anchor="middle" fill="#a6e3a1" font-size="8" opacity="0.6">$2.10/hr</text>

  <line x1="515" y1="357" x2="575" y2="357" stroke="#a6e3a1" stroke-width="1.5" marker-end="url(#arr-green)" opacity="0.8"/>
  <text x="545" y="350" text-anchor="middle" fill="#a6e3a1" font-size="9" opacity="0.7">bind</text>

  <!-- ROW 4: Observability -->
  <rect x="200" y="462" width="130" height="48" rx="6" fill="#313244" stroke="#f38ba8" stroke-width="1.5"/>
  <text x="265" y="483" text-anchor="middle" fill="#f38ba8" font-weight="600">Prometheus</text>
  <text x="265" y="499" text-anchor="middle" fill="#f38ba8" font-size="10" opacity="0.7">scrapes /metrics · :9090</text>

  <rect x="380" y="462" width="130" height="48" rx="6" fill="#313244" stroke="#fab387" stroke-width="1.5"/>
  <text x="445" y="483" text-anchor="middle" fill="#fab387" font-weight="600">Grafana</text>
  <text x="445" y="499" text-anchor="middle" fill="#fab387" font-size="10" opacity="0.7">pheromone · cost · P99</text>

  <path d="M235,400 L235,430 L265,430 L265,462" stroke="#f38ba8" stroke-width="1.2" fill="none" stroke-dasharray="4,3" marker-end="url(#arr-red)" opacity="0.6"/>
  <line x1="330" y1="486" x2="380" y2="486" stroke="#fab387" stroke-width="1.5" marker-end="url(#arr)" opacity="0.7"/>

  <rect x="600" y="462" width="230" height="48" rx="6" fill="#1e1e2e" stroke="#45475a" stroke-width="1" stroke-dasharray="3,3"/>
  <text x="715" y="483" text-anchor="middle" fill="#6c7086" font-size="10">Terraform → GKE cluster</text>
  <text x="715" y="499" text-anchor="middle" fill="#6c7086" font-size="10">+ GPU node pools (5 tiers)</text>

  <!-- Legend -->
  <line x1="110" y1="519" x2="122" y2="519" stroke="#89b4fa" stroke-width="2"/>
  <text x="128" y="523" fill="#6c7086" font-size="9">Extender protocol</text>
  <line x1="232" y1="519" x2="244" y2="519" stroke="#cba6f7" stroke-width="2"/>
  <text x="250" y="523" fill="#6c7086" font-size="9">ACO scoring</text>
  <line x1="330" y1="519" x2="342" y2="519" stroke="#a6e3a1" stroke-width="2"/>
  <text x="348" y="523" fill="#6c7086" font-size="9">Pod binding</text>
  <line x1="422" y1="519" x2="434" y2="519" stroke="#f38ba8" stroke-width="2" stroke-dasharray="3,2"/>
  <text x="440" y="523" fill="#6c7086" font-size="9">Metrics scrape</text>
</svg>
